Coordinates
version=1
nRows=24
nColumns=24
inDegrees=yes

Units are S.I. units (second, meters, Newtons, ...)
Angles are in degrees.

endheader
time	pelvis_tilt	pelvis_list	pelvis_rotation	pelvis_tx	pelvis_ty	pelvis_tz	hip_flexion_r	hip_adduction_r	hip_rotation_r	knee_angle_r	ankle_angle_r	subtalar_angle_r	mtp_angle_r	hip_flexion_l	hip_adduction_l	hip_rotation_l	knee_angle_l	ankle_angle_l	subtalar_angle_l	mtp_angle_l	lumbar_extension	lumbar_bending	lumbar_rotation
      2.86500000	      4.87570876	     11.56873121	     -6.40352897	      0.61934531	      0.97961512	     -0.01804793	     -0.64099344	    -15.75298591	     -4.14764110	    -44.71710467	      0.34165509	     -7.61548366	     27.83400680	     14.96151771	     12.69151783	    -16.52259723	    -12.90769389	     -4.87396966	     -3.41414343	     38.42550479	    -20.61146651	    -14.81391911	      3.64349390
      2.87000000	      4.78922800	     11.81310261	     -6.48725516	      0.62425174	      0.97957995	     -0.01876785	      0.54607055	    -16.10123749	     -3.54769246	    -46.52358900	     -1.05947446	     -8.07933819	     28.08167248	     14.98840780	     13.01254828	    -16.29630622	    -13.21727940	     -4.58869791	     -3.72525522	     37.30953549	    -20.48445449	    -15.09680541	      3.63240204
      2.87500000	      4.67380277	     12.04750555	     -6.56830502	      0.62906667	      0.97944201	     -0.01939427	      1.77106838	    -16.40817937	     -2.90935097	    -48.29684623	     -2.23157053	     -8.28686329	     28.61067973	     15.01445658	     13.30031598	    -16.25891259	    -13.47727898	     -4.27885223	     -3.80899216	     36.24199430	    -20.32305750	    -15.37142453	      3.59073138
      2.88000000	      4.72667693	     12.24264758	     -6.65866868	      0.63393371	      0.97956804	     -0.02004757	      2.72046190	    -16.69642815	     -2.34949972	    -49.90171392	     -2.86420794	     -8.30958795	     30.61795591	     14.79199183	     13.58755523	    -16.25423521	    -13.62680795	     -3.88233766	     -3.78624181	     34.50929349	    -20.34116153	    -15.61369190	      3.59184744
      2.88500000	      4.71043829	     12.52264829	     -6.67196112	      0.63896872	      0.97947960	     -0.02082024	      3.72683538	    -17.14180400	     -1.95278196	    -51.51208741	     -2.46639647	     -7.58548919	     32.28795506	     14.60118885	     13.97373093	    -16.32297031	    -13.70427439	     -3.49476140	     -3.70635224	     33.41185411	    -20.28172083	    -15.90976849	      3.43275031
      2.89000000	      4.77641555	     12.66709534	     -6.72279637	      0.64387997	      0.97968449	     -0.02137415	      4.50353060	    -17.33913960	     -1.45125647	    -52.81788769	     -1.85772296	     -7.23040647	     32.37923255	     14.32745959	     14.17991211	    -16.64618592	    -13.84970940	     -2.91653435	     -2.96358610	     31.83914595	    -20.30678244	    -16.08859208	      3.34005419
      2.89500000	      4.90207233	     12.76727942	     -6.74873363	      0.64885015	      0.97996245	     -0.02214013	      5.16727286	    -17.54810444	     -1.09200267	    -54.01217631	     -1.15154943	     -6.52778322	     32.27311973	     13.94762632	     14.38715318	    -16.86104199	    -13.92373063	     -2.57573858	     -2.68077010	     31.15955193	    -20.40488269	    -16.18882729	      3.25193963
      2.90000000	      4.90961067	     12.82636383	     -6.74934059	      0.65374846	      0.98024672	     -0.02281177	      5.95783416	    -17.61696752	     -0.67989777	    -55.10935263	     -0.71260715	     -6.16469884	     31.98093397	     13.66236676	     14.51905158	    -17.09973165	    -13.95519344	     -2.20198456	     -2.20746212	     30.05046160	    -20.39006564	    -16.24803848	      3.13815042
      2.90500000	      5.04148321	     12.70810140	     -6.70759869	      0.65858050	      0.98087933	     -0.02345166	      6.46823575	    -17.46524858	     -0.36406615	    -55.97181346	     -0.41468632	     -5.76456895	     32.06602897	     13.18682899	     14.49440684	    -17.18660783	    -13.94241013	     -1.91270344	     -1.92577556	     29.98184235	    -20.53580525	    -16.10788452	      3.05210958
      2.91000000	      5.07367976	     12.65966598	     -6.73313050	      0.66328754	      0.98132199	     -0.02400198	      7.17747112	    -17.37542926	      0.01271943	    -56.87418646	     -0.13448601	     -5.59955008	     32.22861998	     12.83254705	     14.50582520	    -17.38308162	    -13.89739611	     -1.65126253	     -1.61073898	     29.87382140	    -20.54787061	    -16.06781697	      3.04087020
      2.91500000	      4.99293322	     12.61463541	     -6.75643140	      0.66791172	      0.98158167	     -0.02450981	      8.05352120	    -17.26285614	      0.42918805	    -57.76957561	      0.19071362	     -5.45208359	     32.42134404	     12.62598008	     14.49824257	    -17.57139373	    -13.89638900	     -1.42336928	     -1.35518185	     29.68501134	    -20.43760943	    -16.02290836	      3.04283829
      2.92000000	      4.81260806	     12.55452652	     -6.71127386	      0.67234077	      0.98169249	     -0.02500675	      9.05625493	    -17.11585474	      0.75109239	    -58.69676812	      0.67226802	     -5.71491646	     32.50263912	     12.58760604	     14.45953800	    -17.67291631	    -14.01865197	     -1.13991023	     -1.14974461	     28.71444117	    -20.24313771	    -15.94585572	      2.97875041
      2.92500000	      4.78251124	     12.53338042	     -6.69497904	      0.67695410	      0.98205542	     -0.02555410	      9.83303135	    -17.03566087	      1.01606763	    -59.49325728	      1.45551885	     -5.62377471	     32.44030666	     12.35614806	     14.49992176	    -17.73146651	    -14.08251063	     -0.89969100	     -0.84440633	     25.80930779	    -20.19882605	    -15.91794678	      2.91811971
      2.93000000	      4.85594454	     12.47937112	     -6.65403152	      0.68170039	      0.98267927	     -0.02607606	     10.42130401	    -16.95665966	      1.19386704	    -60.09253927	      1.94037910	     -5.39326400	     32.64706230	     12.01192984	     14.51587615	    -17.79725927	    -14.22656806	     -0.11676116	     -0.21785534	     23.99292733	    -20.26193596	    -15.84333924	      2.78648009
      2.93500000	      4.87135192	     12.47918149	     -6.67979369	      0.68629288	      0.98313980	     -0.02665204	     11.14534364	    -16.97436653	      1.37143842	    -60.68249406	      2.50592351	     -5.37842750	     32.72254554	     11.79643229	     14.55288251	    -17.83868802	    -14.40152485	      0.20634257	     -0.02146073	     24.07690913	    -20.25540121	    -15.83190938	      2.76993950
      2.94000000	      4.74153198	     12.45348354	     -6.82113725	      0.69061561	      0.98339854	     -0.02705372	     12.11152241	    -16.81736615	      1.83709225	    -61.25029762	      2.91870441	     -5.57780948	     32.73914049	     11.81634154	     14.51297226	    -17.94938701	    -14.66937467	      0.53535145	      0.17371396	     23.77670825	    -20.07969876	    -15.82366266	      2.92716000
      2.94500000	      4.73895244	     12.36297816	     -6.85756909	      0.69526267	      0.98395777	     -0.02738726	     12.79628379	    -16.63812791	      2.04587441	    -61.66923960	      3.37296867	     -5.69639157	     32.41393389	     11.66796629	     14.43045271	    -17.93265027	    -15.01487785	      1.15042560	      0.55275869	     21.67175297	    -20.03745559	    -15.74359000	      2.94983750
      2.95000000	      4.90596529	     12.29308748	     -6.86981922	      0.70007472	      0.98472534	     -0.02791065	     13.21532060	    -16.50263255	      2.21791566	    -61.95992603	      3.83014113	     -5.88112749	     32.43316625	     11.27516122	     14.44624850	    -17.72373365	    -15.21919768	      1.38578432	      0.54043351	     21.63059220	    -20.18003452	    -15.65668631	      2.89279097
      2.95500000	      4.95031268	     12.22769056	     -6.90581814	      0.70466398	      0.98523201	     -0.02830491	     13.84078166	    -16.34940278	      2.40691346	    -62.27621927	      4.34119666	     -5.94932251	     31.66915738	     11.05411341	     14.43063976	    -17.54050491	    -15.47711482	      1.91210002	      0.67226410	     19.59175966	    -20.20159694	    -15.57865496	      2.82920161
      2.96000000	      5.07052806	     12.20952237	     -6.93358770	      0.70930792	      0.98573556	     -0.02854090	     14.34475218	    -16.29039679	      2.48548281	    -62.49150285	      4.87576961	     -6.19528261	     31.70016720	     10.71844486	     14.47683345	    -17.33073988	    -15.63546479	      2.15485712	      0.65899363	     19.59698474	    -20.30569185	    -15.58587374	      2.75283870
      2.96500000	      4.94533238	     12.28941743	     -6.96020736	      0.71383997	      0.98579150	     -0.02886579	     15.20062400	    -16.29787643	      2.62628638	    -62.75082670	      5.38411642	     -6.31678595	     31.62572722	     10.68272250	     14.59438208	    -17.15996653	    -15.81781019	      2.40947355	      0.56617174	     19.37502824	    -20.11741627	    -15.68843697	      2.66322614
      2.97000000	      4.75773338	     12.35233326	     -7.02778606	      0.71832123	      0.98577081	     -0.02923689	     16.13549116	    -16.27823340	      2.78216713	    -62.95643129	      5.83023034	     -6.36097273	     31.37626239	     10.71049678	     14.69127724	    -17.04945829	    -15.98656107	      2.67689117	      0.40596479	     18.98318864	    -19.86020474	    -15.76529588	      2.69470199
      2.97500000	      4.58930723	     12.44046321	     -7.04386789	      0.72270480	      0.98577062	     -0.02974999	     17.03068004	    -16.31283050	      2.90059073	    -63.06499755	      6.31511349	     -6.48053373	     31.14271873	     10.69427284	     14.84409142	    -16.89966035	    -16.10072904	      2.90746942	      0.20537561	     18.58828815	    -19.64738140	    -15.84678620	      2.67153867
      2.98000000	      4.40519453	     12.53124861	     -7.04093703	      0.72703111	      0.98572469	     -0.03012421	     17.91218102	    -16.30429207	      2.95995347	    -63.15683490	      6.66733098	     -6.84534160	     30.72308883	     10.67733946	     14.96549706	    -16.90924749	    -16.19373152	      3.18030523	      0.29807975	     18.24143398	    -19.42848524	    -15.93916990	      2.57184053
